<?xml version="1.0" encoding="UTF-8"?>
<svg xmlns="http://www.w3.org/2000/svg" xmlns:xlink="http://www.w3.org/1999/xlink" viewBox="0 0 230.75 230.75">
  <defs>
    <style>
      .cls-1 {
        fill: #ee2331;
      }

      .cls-2 {
        fill: #6c0f0f;
      }

      .cls-3 {
        fill: url(#radial-gradient);
        stroke: #6c0f0f;
        stroke-miterlimit: 10;
        stroke-width: 5px;
      }

      .cls-4 {
        fill: #a62323;
      }

      .cls-5 {
        fill: #20a049;
      }

      .cls-6 {
        fill: #771b1b;
      }
    </style>
    <radialGradient id="radial-gradient" cx="115.38" cy="115.38" fx="115.38" fy="115.38" r="173.15" gradientUnits="userSpaceOnUse">
      <stop offset="0" stop-color="#ee2331"/>
      <stop offset="1" stop-color="#a62323"/>
    </radialGradient>
  </defs>
  <g id="Layer_1" data-name="Layer 1">
    <rect class="cls-3" x="2.5" y="2.5" width="225.75" height="225.75" rx="36.75" ry="36.75"/>
  </g>
  <g id="Layer_2" data-name="Layer 2">
    <g>
      <g>
        <path class="cls-6" d="M42.16,204.85c-1.28,0-5.19,0-7.32-2.8-3.25-4.28,.36-10.86,1.55-13.03,1.16-2.11,3.76-6.04,8.12-8.58,3.25-1.89,7.31-2.9,11.74-2.9,8.14,0,17.55,3.56,18.55,9.32,.33,1.9-.28,3.83-1.8,5.73-5.05,6.31-20.06,11.76-29.59,12.23-.42,.02-.84,.03-1.25,.03Z"/>
        <path class="cls-2" d="M56.25,180.04c7.84,0,15.42,3.44,16.08,7.24,1.12,6.48-17.7,14.47-29.05,15.03-.38,.02-.76,.03-1.12,.03-2.29,0-4.26-.41-5.33-1.81-2.27-2.99,.89-8.75,1.75-10.31,.77-1.41,3.09-5.24,7.19-7.62,3.1-1.81,6.82-2.56,10.48-2.56m0-5c-4.87,0-9.37,1.12-13,3.24-4.89,2.85-7.77,7.2-9.05,9.54-3.7,6.75-4.15,12.05-1.35,15.74,2.88,3.79,7.72,3.79,9.31,3.79,.43,0,.89-.01,1.37-.04,10.26-.51,25.88-6.24,31.42-13.16,2.48-3.1,2.63-5.91,2.31-7.72-1.23-7.13-11.65-11.39-21.01-11.39h0Z"/>
      </g>
      <g>
        <path class="cls-5" d="M156.29,109.94c-1.68,0-2.86-1.26-4.99-3.55-3.15-3.38-7.91-8.48-13.36-8.48-.8,0-1.57,.1-2.39,.2-.95,.12-1.94,.24-2.95,.24-1.8,0-3.31-.4-4.61-1.21-1.72-1.08-2.28-2.4-2.72-3.46-.2-.47-.38-.91-.69-1.43-2.25-3.79-8.12-7-12.82-7-.24,0-.48,0-.71,.03-.83,.06-1.47,.23-2.14,.4-.8,.21-1.63,.42-2.64,.42h0c-.69,0-1.37-.1-2.07-.31-3.26-.96-4.84-3.55-5.68-4.95-.1-.16-.19-.31-.28-.45-1.98-3.04-7.53-5.37-16.07-6.74-1.17-.19-2.05-1.17-2.1-2.35-.05-1.18,.73-2.24,1.88-2.54,3.02-.77,6.15-1.25,9.3-1.43,.9-.05,1.81-.08,2.7-.08,5.81,0,10.35,1.1,14,1.98,2.55,.62,4.76,1.15,6.71,1.15,1.04,0,1.97-.15,2.87-.46,1.45-.5,1.87-1.21,2.97-3.35,.89-1.74,2.12-4.12,4.6-6.88,5.05-5.59,12.71-12.12,22.78-19.42,19.78-14.33,28.53-16.78,34.47-17.28,1.1-.09,2.17-.14,3.16-.14,4.16,0,7.36,.82,9.79,2.5,3.69,2.55,5.93,7.19,5.71,11.82-.16,3.42-1.69,6.18-4.18,7.58-1.36,.76-3.14,1.18-5.01,1.18-1.3,0-2.58-.2-3.72-.59-2.1-.71-3.25-1.87-4.08-2.72-.68-.69-.94-.93-1.43-1.05-.18-.04-.36-.07-.55-.07-1.28,0-2.97,.98-4.9,2.15-6.44,3.95-9.67,5.93-12.2,8.23-4.5,4.1-5.84,6.07-8.79,10.4-2.15,3.16-5.1,7.49-10.62,14.58l-.1,.13c-1.72,2.21-2.61,3.43-2.48,4.97,.13,1.62,1.34,2.75,3.84,4.96,1.57,1.39,3.53,3.12,5.52,5.46,4.47,5.28,7.56,12.07,6.88,15.12-.3,1.34-1.17,1.93-1.66,2.16-.38,.18-.79,.27-1.21,.27Z"/>
        <path class="cls-2" d="M185.5,25.35c4.59,0,6.96,1.08,8.37,2.05,5.45,3.77,6.21,12.65,1.73,15.16-1.01,.57-2.39,.86-3.79,.86-1,0-2.02-.15-2.93-.46-3.02-1.02-3.23-3.21-5.71-3.83-.39-.1-.77-.14-1.16-.14-1.96,0-3.96,1.15-6.2,2.52-6.58,4.03-9.87,6.05-12.58,8.52-8.14,7.42-6.69,8.57-19.7,25.29-1.8,2.32-3.32,4.21-3.11,6.84,.35,4.33,5,5.99,9.95,11.84,5.27,6.23,7.22,12.87,6.08,13.4-.05,.02-.1,.03-.16,.03-1.91,0-8.86-12.03-18.35-12.03-.04,0-.08,0-.12,0-1.73,.02-3.52,.44-5.22,.44-1.15,0-2.26-.19-3.29-.83-1.61-1-1.44-2.13-2.58-4.05-2.62-4.41-9.3-8.22-14.97-8.22-.3,0-.6,.01-.9,.03-2.08,.16-3.19,.81-4.59,.81-.42,0-.86-.06-1.36-.21-2.68-.79-3.81-3.18-4.57-4.36-1.77-2.72-6.12-5.98-17.77-7.85,1.87-.48,4.95-1.14,8.82-1.36,.88-.05,1.74-.07,2.56-.07,9.61,0,15.42,3.13,20.71,3.13,1.24,0,2.46-.17,3.69-.6,4.4-1.53,3.45-5.21,8.6-10.92,1.93-2.14,7.89-8.56,22.39-19.07,20.67-14.97,28.57-16.42,33.21-16.81,1.07-.09,2.05-.13,2.95-.13m0-5s0,0,0,0c-1.06,0-2.2,.05-3.37,.15-6.6,.56-15.5,3.09-35.73,17.75-10.21,7.4-18.01,14.05-23.17,19.77-2.7,3-4.01,5.55-4.97,7.41-.99,1.93-1.06,1.96-1.56,2.13-.63,.22-1.28,.32-2.05,.32-1.66,0-3.73-.5-6.13-1.08-3.78-.91-8.47-2.05-14.58-2.05-.94,0-1.89,.03-2.84,.08-3.31,.19-6.6,.69-9.77,1.51-2.3,.59-3.87,2.7-3.76,5.07,.11,2.37,1.86,4.33,4.2,4.71,10.79,1.73,13.64,4.52,14.37,5.63,.07,.12,.15,.25,.24,.39,.95,1.56,2.93,4.81,7.11,6.04,.94,.28,1.85,.41,2.78,.41,1.32,0,2.39-.27,3.26-.5,.61-.16,1.1-.28,1.71-.33,.17-.01,.35-.02,.53-.02,4.15,0,9.05,3.05,10.67,5.77,.22,.37,.36,.7,.53,1.12,.52,1.24,1.3,3.12,3.7,4.62,1.71,1.07,3.65,1.59,5.93,1.59,1.17,0,2.28-.14,3.26-.26,.74-.09,1.44-.18,2.01-.18h.07c4.37,0,8.68,4.63,11.53,7.69,2.35,2.52,4.05,4.34,6.82,4.34,.79,0,1.55-.17,2.27-.5,1.55-.72,2.66-2.14,3.05-3.89,.98-4.43-2.99-12.05-7.42-17.27-2.11-2.49-4.14-4.28-5.77-5.72-1.58-1.4-2.95-2.6-3.01-3.29-.05-.6,.71-1.62,1.96-3.23l.1-.13c5.57-7.15,8.54-11.52,10.72-14.71,2.91-4.28,4.12-6.05,8.4-9.96,2.36-2.15,5.52-4.09,11.82-7.95,.82-.5,2.65-1.63,3.44-1.77,.11,.1,.24,.24,.35,.35,.9,.91,2.4,2.44,5.07,3.34,1.39,.47,2.96,.72,4.52,.72,2.29,0,4.51-.53,6.23-1.5,3.27-1.83,5.26-5.35,5.46-9.65,.26-5.47-2.41-10.96-6.79-13.99-2.86-1.98-6.53-2.94-11.21-2.94h0Z"/>
      </g>
      <g>
        <path class="cls-4" d="M41.03,197.74c-2.99,0-10.34-.58-13.97-6.01-3.71-5.54-.51-11.51,4.78-21.4,3.3-6.17,7.42-13.84,11.47-24.15,8.68-22.12,15.91-47.27,15.99-47.52,0-.03,.02-.07,.03-.1,.11-.35,.24-.74,.38-1.18,1.07-3.37,3.05-9.63,7.71-16.17,4.29-6.02,12.85-16.11,22.02-16.11,.81,0,1.62,.08,2.39,.24,5.71,1.17,10.31,6.44,13.66,15.66,5.54,15.24-.23,27.38-38.67,96.08-3.65,6.52-10.45,18.67-22.44,20.44-1.06,.16-2.19,.24-3.35,.24Z"/>
        <path class="cls-2" d="M89.44,67.59c.63,0,1.26,.06,1.89,.19,7.24,1.48,10.82,11.33,11.81,14.06,5.13,14.1,0,25.21-38.5,94-3.79,6.78-10.06,17.63-20.62,19.19-.91,.13-1.92,.21-2.99,.21-4.31,0-9.44-1.24-11.89-4.9-4.78-7.14,6.19-16.99,16.5-43.25,8.83-22.49,16.06-47.75,16.06-47.75,1-3.01,2.73-9.64,7.75-16.69,1.46-2.06,10.73-15.06,19.98-15.06m0-5c-10.29,0-19.49,10.75-24.05,17.16-4.89,6.86-6.95,13.37-8.05,16.87-.13,.43-.26,.81-.37,1.14-.02,.07-.04,.14-.06,.21-.07,.25-7.26,25.28-15.91,47.3-4,10.18-8.07,17.78-11.34,23.89-5.34,9.97-9.21,17.18-4.66,23.97,4.3,6.42,12.65,7.12,16.04,7.12,1.28,0,2.53-.09,3.72-.26,13.21-1.95,20.4-14.79,24.26-21.69,20-35.74,30.47-55.03,35.86-68.03,5.48-13.2,6.26-21.08,2.97-30.12-3.67-10.09-8.89-15.89-15.51-17.25-.94-.19-1.92-.29-2.9-.29h0Z"/>
      </g>
      <g>
        <path class="cls-1" d="M76.14,210.9c-17.5,0-32.02-6.39-34.52-15.18-1.23-4.33,.68-7.42,3.86-12.55,.97-1.57,2.08-3.35,3.32-5.51,8.01-13.91,11.44-25.71,15.41-39.36,3.17-10.91,6.77-23.27,13.32-39.1,.32-.77,.91-2.2,1.78-3.91,.04-.07,.83-1.63,1.76-3.17,3.72-6.16,13.34-20.48,22.21-20.48,.64,0,1.27,.07,1.87,.21,2.24,.52,3.24,1.76,4.04,2.76,.65,.81,1.26,1.57,2.91,2.36,1.66,.79,2.93,.9,3.84,.9,.66,0,1.3-.06,1.99-.12,.73-.07,1.48-.14,2.29-.14,1.79,0,3.35,.36,4.91,1.12,3.46,1.7,4.7,4.37,5.7,6.51,.88,1.9,1.52,3.27,3.46,4.26,.98,.5,1.65,.57,2.17,.57,.59,0,1.23-.1,1.96-.23,.99-.16,2.11-.35,3.47-.35s2.72,.19,4.15,.57c9.6,2.55,14.28,11.68,15.12,13.48,1.58,3.38,2.35,7.12,2.36,11.43,.02,8.91-3.94,16-7.13,21.69-1.07,1.91-2.08,3.72-2.85,5.41-4.88,10.77-12.26,27.04-27.06,43.22l-.68,.74c-8.87,9.7-14.22,15.55-23.79,19.74-7.69,3.36-16.64,5.14-25.88,5.14Z"/>
        <path class="cls-2" d="M103.27,74.14c.44,0,.88,.05,1.31,.15,2.87,.67,2.22,2.92,6.44,4.94,1.9,.91,3.48,1.14,4.92,1.14,1.51,0,2.87-.26,4.28-.26,1.19,0,2.42,.18,3.8,.87,5.33,2.62,3.72,8,9.12,10.75,1.25,.64,2.3,.84,3.31,.84,1.69,0,3.25-.57,5.43-.57,1.01,0,2.16,.12,3.51,.48,8.78,2.33,13.01,11.08,13.5,12.12,.91,1.95,2.11,5.27,2.12,10.38,.03,11.1-6.58,19.08-9.75,26.06-5.11,11.28-12.38,26.99-26.62,42.56-9.05,9.89-14.3,15.8-23.62,19.88-7.86,3.44-16.62,4.93-24.88,4.93-15.86,0-29.88-5.51-32.12-13.37-1.23-4.31,1.73-7.08,6.94-16.12,14.54-25.28,14.07-43.02,28.88-78.75,.38-.93,.92-2.2,1.7-3.74,0,0,.78-1.53,1.67-3.01,1.22-2.01,11.65-19.27,20.07-19.27m0-5c-9.29,0-18.37,11.79-24.35,21.69-1.01,1.68-1.86,3.35-1.87,3.36-.9,1.77-1.52,3.26-1.85,4.06-6.61,15.95-10.23,28.38-13.42,39.36-4.09,14.06-7.32,25.16-15.17,38.82-1.22,2.12-2.31,3.88-3.28,5.44-3.29,5.32-5.67,9.16-4.14,14.55,3.33,11.68,21.47,17,36.93,17,9.59,0,18.88-1.85,26.88-5.35,10.06-4.4,15.86-10.74,24.64-20.35l.67-.74c15.07-16.47,22.54-32.96,27.49-43.87,.72-1.6,1.71-3.36,2.75-5.22,3.33-5.95,7.47-13.35,7.44-22.92-.01-4.61-.88-8.81-2.59-12.48-.92-1.98-6.07-12.01-16.75-14.84-1.65-.44-3.22-.65-4.79-.65-1.57,0-2.85,.21-3.88,.38-.63,.1-1.17,.19-1.56,.19-.23,0-.5-.02-1.04-.3-1.11-.57-1.47-1.23-2.33-3.08-1.04-2.23-2.61-5.61-6.86-7.7-1.89-.93-3.85-1.38-6.01-1.38-.92,0-1.77,.08-2.52,.15-.63,.06-1.22,.11-1.76,.11-.73,0-1.56-.08-2.76-.65-1.14-.54-1.46-.94-2.04-1.67-.88-1.09-2.34-2.91-5.42-3.63-.79-.18-1.61-.28-2.44-.28h0Z"/>
      </g>
    </g>
  </g>
</svg>